<mxfile host="app.diagrams.net" modified="2022-03-22T13:05:29.895Z" agent="5.0 (Windows NT 10.0; Win64; x64) AppleWebKit/537.36 (KHTML, like Gecko) Chrome/99.0.4844.82 Safari/537.36" etag="LPPRBK55FGDcI44V0yiB" version="16.5.5" type="github" pages="2">
  <diagram id="kLKSPKlZIkCmX0y3lvpN" name="Page-1">
    <mxGraphModel dx="731" dy="410" grid="1" gridSize="10" guides="1" tooltips="1" connect="1" arrows="1" fold="1" page="1" pageScale="1" pageWidth="827" pageHeight="1169" math="0" shadow="0">
      <root>
        <mxCell id="0" />
        <mxCell id="1" parent="0" />
        <mxCell id="HMjiJGmBRKAFELN5LIVS-2" value="Palíndromo" style="swimlane;startSize=60;fillColor=#fff2cc;strokeColor=#d6b656;" vertex="1" parent="1">
          <mxGeometry x="280" y="110" width="200" height="220" as="geometry" />
        </mxCell>
        <mxCell id="HMjiJGmBRKAFELN5LIVS-3" value="Variable = arg: string&lt;br&gt;&lt;br&gt;ejecución = join(reversed)&lt;br&gt;&lt;br&gt;" style="text;html=1;strokeColor=#9673a6;fillColor=#e1d5e7;align=left;verticalAlign=middle;whiteSpace=wrap;rounded=0;" vertex="1" parent="HMjiJGmBRKAFELN5LIVS-2">
          <mxGeometry y="60" width="200" height="160" as="geometry" />
        </mxCell>
      </root>
    </mxGraphModel>
  </diagram>
  <diagram id="VrMV9tbYSopwxL8nejKD" name="Page-2">
    <mxGraphModel dx="731" dy="410" grid="1" gridSize="10" guides="1" tooltips="1" connect="1" arrows="1" fold="1" page="1" pageScale="1" pageWidth="827" pageHeight="1169" math="0" shadow="0">
      <root>
        <mxCell id="rOxQDCkXccXmc6REZy6l-0" />
        <mxCell id="rOxQDCkXccXmc6REZy6l-1" parent="rOxQDCkXccXmc6REZy6l-0" />
        <mxCell id="rOxQDCkXccXmc6REZy6l-3" value="Adress" style="swimlane;fontStyle=0;childLayout=stackLayout;horizontal=1;startSize=30;horizontalStack=0;resizeParent=1;resizeParentMax=0;resizeLast=0;collapsible=1;marginBottom=0;fillColor=#ffe6cc;strokeColor=#d79b00;" vertex="1" parent="rOxQDCkXccXmc6REZy6l-1">
          <mxGeometry x="310" y="150" width="140" height="90" as="geometry" />
        </mxCell>
        <mxCell id="rOxQDCkXccXmc6REZy6l-4" value="y" style="text;strokeColor=none;fillColor=none;align=left;verticalAlign=middle;spacingLeft=4;spacingRight=4;overflow=hidden;points=[[0,0.5],[1,0.5]];portConstraint=eastwest;rotatable=0;fontColor=#4DFFE7;" vertex="1" parent="rOxQDCkXccXmc6REZy6l-3">
          <mxGeometry y="30" width="140" height="30" as="geometry" />
        </mxCell>
        <mxCell id="rOxQDCkXccXmc6REZy6l-5" value="z" style="text;strokeColor=none;fillColor=none;align=left;verticalAlign=middle;spacingLeft=4;spacingRight=4;overflow=hidden;points=[[0,0.5],[1,0.5]];portConstraint=eastwest;rotatable=0;fontColor=#4DFFE7;" vertex="1" parent="rOxQDCkXccXmc6REZy6l-3">
          <mxGeometry y="60" width="140" height="30" as="geometry" />
        </mxCell>
      </root>
    </mxGraphModel>
  </diagram>
</mxfile>
